<?xml version="1.0" encoding="UTF-8"?>
<svg id="Capa_1" data-name="Capa 1" xmlns="http://www.w3.org/2000/svg" viewBox="0 0 2521.28 2274.31">
  <defs>
    <style>
      .cls-1 {
        fill: #2d5b72;
      }
    </style>
  </defs>
  <g>
    <path class="cls-1" d="M832.41,2271.91v-154.8h108.89v25.24h-76.44v39.66h67.55v25h-67.55v64.9h-32.45Z"/>
    <path class="cls-1" d="M959.09,2271.91v-154.8h32.45v154.8h-32.45Z"/>
    <path class="cls-1" d="M1056.92,2271.91v-129.8h-47.59v-25h127.4v25h-47.35v129.8h-32.45Z"/>
    <path class="cls-1" d="M1154.51,2271.91v-154.8h28.12l73.31,103.12v-103.12h32.45v154.8h-28.12l-73.31-103.12v103.12h-32.45Z"/>
    <path class="cls-1" d="M1315.8,2271.91v-154.8h111.05v25.24h-78.6v39.66h69.71v25h-69.71v39.9h78.6v25h-111.05Z"/>
    <path class="cls-1" d="M1497.53,2274.31c-9.94,0-19.19-.72-27.77-2.16-8.57-1.44-15.98-3.52-22.23-6.25v-28.61c7.05,2.88,14.66,5.21,22.83,6.97,8.18,1.77,16.18,2.65,24.04,2.65,11.21,0,19.47-1.04,24.76-3.12,5.29-2.08,7.93-6.81,7.93-14.18,0-4.65-1.12-8.33-3.36-11.06-2.25-2.72-6.13-5.17-11.66-7.33-5.53-2.16-13.34-4.6-23.43-7.33-16.19-4.48-27.56-10.1-34.13-16.83-6.57-6.73-9.86-16.02-9.86-27.88,0-14.26,5.21-25.24,15.62-32.93,10.42-7.69,25.56-11.54,45.43-11.54,9.29,0,17.95.64,25.96,1.92,8.01,1.28,14.5,2.81,19.47,4.57v28.61c-13.14-4.97-26.84-7.45-41.11-7.45-10.1,0-18.03,1.08-23.8,3.24-5.77,2.16-8.65,6.69-8.65,13.58,0,4.01,1.04,7.21,3.12,9.62,2.08,2.4,5.65,4.57,10.7,6.49,5.05,1.92,12.14,4.09,21.27,6.49,12.66,3.37,22.43,7.37,29.33,12.02,6.89,4.65,11.66,9.94,14.3,15.86,2.64,5.93,3.97,12.58,3.97,19.95,0,13.46-5.13,24.28-15.39,32.45-10.26,8.17-26.04,12.26-47.35,12.26Z"/>
    <path class="cls-1" d="M1641.27,2181.77c12.66,3.37,22.43,7.37,29.33,12.02,6.89,4.65,11.66,9.94,14.3,15.86,2.64,5.93,3.97,12.58,3.97,19.95,0,13.46-5.13,24.28-15.39,32.45-10.26,8.17-26.04,12.26-47.35,12.26-9.94,0-19.19-.72-27.77-2.16-8.57-1.44-15.98-3.52-22.23-6.25v-28.61c7.05,2.88,14.66,5.21,22.83,6.97,8.18,1.77,16.18,2.65,24.04,2.65,11.21,0,19.47-1.04,24.76-3.12,5.29-2.08,7.93-6.81,7.93-14.18,0-4.65-1.12-8.33-3.36-11.06-2.25-2.72-6.13-5.17-11.66-7.33-5.53-2.16-13.34-4.6-23.43-7.33-16.19-4.48-27.56-10.1-34.13-16.83-6.57-6.73-9.86-16.02-9.86-27.88,0-14.26,5.21-25.24,15.62-32.93,10.42-7.69,25.56-11.54,45.43-11.54,9.29,0,17.95.64,25.96,1.92,8.01,1.28,14.5,2.81,19.47,4.57v28.61c-13.14-4.97-26.84-7.45-41.11-7.45-10.1,0-18.03,1.08-23.8,3.24-5.77,2.16-8.65,6.69-8.65,13.58,0,4.01,1.04,7.21,3.12,9.62"/>
  </g>
  <g>
    <g>
      <path class="cls-1" d="M161.73,1418.6L9.31,1176.6c-6.22-10.85-9.31-22.11-9.31-33.74v-39.56c0-12.4,3.67-22.29,11.05-29.67,7.37-7.36,17.26-11.05,29.67-11.05h622.48c10.85,0,20.36,4.06,28.51,12.21,8.14,8.15,12.21,17.65,12.21,28.51v46.54c0,11.64-3.89,21.34-11.63,29.09-7.76,7.76-17.46,11.64-29.09,11.64H186.16l140.79,224.55h208.26c10.85,0,20.16,4.07,27.93,12.22,7.74,8.14,11.63,17.65,11.63,28.51v40.72c0,10.87-3.89,20.36-11.63,28.51-7.76,8.14-17.07,12.21-27.93,12.21h-252.48c-50.43,0-86.1,10.47-107.04,31.42-20.94,20.94-31.42,56.62-31.42,107.03v74.46h518.93c10.85,0,20.36,4.07,28.51,12.22,8.14,8.15,12.21,17.65,12.21,28.51v46.54c0,10.87-4.07,20.36-12.21,28.51-8.15,8.15-17.65,12.21-28.51,12.21H40.72c-12.41,0-22.3-3.89-29.67-11.63-7.38-7.74-11.05-17.45-11.05-29.09v-173.36c0-69.81,12.6-124.87,37.82-165.22,25.19-40.32,66.5-67.08,123.91-80.28Z"/>
      <path class="cls-1" d="M1044.81,1063.73h339.74c88.43,0,151.84,21.15,190.24,63.41,38.4,42.28,57.6,105.7,57.6,190.24v18.62c0,11.63-3.9,21.34-11.64,29.09-7.75,7.76-17.06,11.63-27.92,11.63h-63.99c-10.87,0-20.36-3.87-28.51-11.63-8.15-7.74-12.22-17.46-12.22-29.09v-6.99c0-50.41-10.47-86.09-31.41-107.03-20.94-20.95-56.63-31.42-107.04-31.42h-271.09c-50.43,0-86.09,10.47-107.04,31.42-20.94,20.94-31.41,56.62-31.41,107.03v283.9c0,50.43,10.47,86.1,31.41,107.04,20.95,20.94,56.61,31.41,107.04,31.41h271.09c50.41,0,86.1-10.47,107.04-31.41,20.94-20.94,31.41-56.61,31.41-107.04v-6.98c0-11.64,4.07-21.32,12.22-29.09,8.15-7.74,17.63-11.64,28.51-11.64h63.99c10.85,0,20.16,3.9,27.92,11.64,7.74,7.76,11.64,17.45,11.64,29.09v18.61c0,83.77-19.4,147.01-58.18,189.65-38.79,42.67-102.01,63.99-189.65,63.99h-339.74c-88.43,0-152.03-21.32-190.81-63.99-38.8-42.65-58.18-105.88-58.18-189.65v-307.16c0-84.54,19.37-147.95,58.18-190.24,38.77-42.26,102.38-63.41,190.81-63.41Z"/>
      <path class="cls-1" d="M1724.29,1837.46v-733.64c0-12.4,3.68-22.29,11.06-29.67,7.36-7.37,17.25-11.06,29.67-11.06h62.82c12.4,0,22.29,3.69,29.67,11.06,7.37,7.38,11.06,17.27,11.06,29.67v530.03c70.57-89.19,135.73-171.8,195.46-247.83,25.61-32.57,51.58-65.15,77.96-97.72,26.36-32.58,50.8-63.21,73.3-91.92,22.48-28.68,42.86-53.91,61.09-75.63,18.21-21.7,26.51-31.62,35.82-42.49,8.52-10.08,19.37-15.14,32.58-15.14h84.93c8.52,0,16.09,2.15,22.68,6.41,6.58,4.27,11.44,9.89,14.54,16.87,6.2,14.74,4.26,29.09-5.82,43.05l-235.37,285.66h46.55c88.43,0,152.01,21.34,190.82,63.99,38.77,42.67,58.17,106.28,58.17,190.82v167.54c0,12.41-3.69,22.31-11.05,29.67-7.38,7.38-17.27,11.05-29.67,11.05h-63.99c-11.63,0-21.14-3.67-28.51-11.05-7.38-7.36-11.05-17.26-11.05-29.67v-155.91c0-50.41-10.67-86.09-31.99-107.03-21.34-20.95-57.21-31.42-107.62-31.42h-116.35l-243.17,295.53c-10.1,12.42-18.19,22.37-26.19,32.58-5.38,6.87-17.27,6.98-29.67,6.98h-57.01c-12.42,0-22.31-3.67-29.67-11.05-7.38-7.36-11.06-17.26-11.06-29.67Z"/>
    </g>
    <g>
      <path class="cls-1" d="M596.8,692c-17.1,0-34.03-7.55-45.44-22.01-19.79-25.07-15.5-61.44,9.58-81.22l175.91-138.81-175.91-138.81c-25.08-19.79-29.36-56.15-9.58-81.22,19.78-25.08,56.14-29.37,81.22-9.58l210.7,166.26c19.52,15.39,30.72,38.49,30.72,63.35s-11.2,47.96-30.72,63.36l-210.69,166.25c-10.61,8.37-23.24,12.43-35.78,12.43ZM771.64,477.41h.06-.06Z"/>
      <path class="cls-1" d="M1924.5,692c-13.31,0-26.68-4.57-37.58-13.9l-191.37-163.8c-18.82-16.11-29.62-39.56-29.62-64.34s10.8-48.23,29.62-64.34l191.37-163.81c24.27-20.77,60.79-17.93,81.54,6.33,20.77,24.26,17.93,60.77-6.33,81.54l-163.89,140.27,163.89,140.27c24.26,20.77,27.1,57.28,6.33,81.54-11.44,13.36-27.65,20.23-43.96,20.23Z"/>
      <path class="cls-1" d="M830.21,792.35c-31.94,0-57.83-25.89-57.83-57.83V165.41c0-31.94,25.89-57.83,57.83-57.83s57.83,25.89,57.83,57.83v569.11c0,31.94-25.89,57.83-57.83,57.83Z"/>
      <path class="cls-1" d="M1709.31,792.35c-31.94,0-57.83-25.89-57.83-57.83V165.41c0-31.94,25.89-57.83,57.83-57.83s57.83,25.89,57.83,57.83v569.11c0,31.94-25.89,57.83-57.83,57.83Z"/>
      <path class="cls-1" d="M1494.09,350.97h-448.67c-31.94,0-57.83-25.89-57.83-57.83V57.83c0-31.94,25.89-57.83,57.83-57.83s57.83,25.89,57.83,57.83v177.48h333V57.83c0-31.94,25.89-57.83,57.83-57.83s57.83,25.89,57.83,57.83v235.31c0,31.94-25.89,57.83-57.83,57.83Z"/>
      <path class="cls-1" d="M1494.09,865.3c-31.94,0-57.83-25.89-57.83-57.83v-177.48h-333v177.48c0,31.94-25.89,57.83-57.83,57.83s-57.83-25.89-57.83-57.83v-235.31c0-31.94,25.89-57.83,57.83-57.83h448.67c31.94,0,57.83,25.89,57.83,57.83v235.31c0,31.94-25.89,57.83-57.83,57.83Z"/>
      <path class="cls-1" d="M1269.76,350.97c-31.94,0-57.83-25.89-57.83-57.83v-133.63c0-31.94,25.89-57.83,57.83-57.83s57.83,25.89,57.83,57.83v133.63c0,31.94-25.89,57.83-57.83,57.83Z"/>
    </g>
  </g>
</svg>